<mxfile host="app.diagrams.net" agent="Mozilla/5.0 (Windows NT 10.0; Win64; x64) AppleWebKit/537.36 (KHTML, like Gecko) Chrome/135.0.0.0 Safari/537.36" version="26.2.14">
  <diagram name="Page-1" id="H36Btm2b92rR10RbeIhn">
    <mxGraphModel dx="2329" dy="2145" grid="1" gridSize="10" guides="1" tooltips="1" connect="1" arrows="1" fold="1" page="1" pageScale="1" pageWidth="850" pageHeight="1100" math="0" shadow="0">
      <root>
        <mxCell id="0" />
        <mxCell id="1" parent="0" />
        <mxCell id="2l3fewsbaPLTK3KkvpYB-9" style="edgeStyle=orthogonalEdgeStyle;rounded=0;orthogonalLoop=1;jettySize=auto;html=1;exitX=0.5;exitY=1;exitDx=0;exitDy=0;entryX=0.5;entryY=0;entryDx=0;entryDy=0;" edge="1" parent="1" source="2l3fewsbaPLTK3KkvpYB-1" target="2l3fewsbaPLTK3KkvpYB-2">
          <mxGeometry relative="1" as="geometry" />
        </mxCell>
        <mxCell id="2l3fewsbaPLTK3KkvpYB-1" value="Start" style="ellipse;whiteSpace=wrap;html=1;" vertex="1" parent="1">
          <mxGeometry x="469" y="-140" width="120" height="30" as="geometry" />
        </mxCell>
        <mxCell id="2l3fewsbaPLTK3KkvpYB-22" style="edgeStyle=orthogonalEdgeStyle;rounded=0;orthogonalLoop=1;jettySize=auto;html=1;exitX=0.5;exitY=1;exitDx=0;exitDy=0;entryX=0.5;entryY=0;entryDx=0;entryDy=0;" edge="1" parent="1" source="2l3fewsbaPLTK3KkvpYB-2" target="2l3fewsbaPLTK3KkvpYB-21">
          <mxGeometry relative="1" as="geometry" />
        </mxCell>
        <mxCell id="2l3fewsbaPLTK3KkvpYB-2" value="Initilaize Timers" style="rounded=1;whiteSpace=wrap;html=1;" vertex="1" parent="1">
          <mxGeometry x="464" y="-90" width="130" height="60" as="geometry" />
        </mxCell>
        <mxCell id="2l3fewsbaPLTK3KkvpYB-11" style="edgeStyle=orthogonalEdgeStyle;rounded=0;orthogonalLoop=1;jettySize=auto;html=1;exitX=0.5;exitY=1;exitDx=0;exitDy=0;entryX=0.5;entryY=0;entryDx=0;entryDy=0;" edge="1" parent="1" source="2l3fewsbaPLTK3KkvpYB-3" target="2l3fewsbaPLTK3KkvpYB-5">
          <mxGeometry relative="1" as="geometry" />
        </mxCell>
        <mxCell id="2l3fewsbaPLTK3KkvpYB-3" value="Initialize Sensors, I2C" style="rounded=1;whiteSpace=wrap;html=1;" vertex="1" parent="1">
          <mxGeometry x="470" y="180" width="120" height="60" as="geometry" />
        </mxCell>
        <mxCell id="2l3fewsbaPLTK3KkvpYB-16" style="edgeStyle=orthogonalEdgeStyle;rounded=0;orthogonalLoop=1;jettySize=auto;html=1;exitX=0.5;exitY=0;exitDx=0;exitDy=0;entryX=0;entryY=0.5;entryDx=0;entryDy=0;" edge="1" parent="1" source="2l3fewsbaPLTK3KkvpYB-4" target="2l3fewsbaPLTK3KkvpYB-3">
          <mxGeometry relative="1" as="geometry" />
        </mxCell>
        <mxCell id="2l3fewsbaPLTK3KkvpYB-19" value="yes" style="edgeLabel;html=1;align=center;verticalAlign=middle;resizable=0;points=[];" vertex="1" connectable="0" parent="2l3fewsbaPLTK3KkvpYB-16">
          <mxGeometry x="-0.6626" relative="1" as="geometry">
            <mxPoint as="offset" />
          </mxGeometry>
        </mxCell>
        <mxCell id="2l3fewsbaPLTK3KkvpYB-17" style="edgeStyle=orthogonalEdgeStyle;rounded=0;orthogonalLoop=1;jettySize=auto;html=1;exitX=1;exitY=0.5;exitDx=0;exitDy=0;entryX=0;entryY=0.5;entryDx=0;entryDy=0;" edge="1" parent="1" source="2l3fewsbaPLTK3KkvpYB-4" target="2l3fewsbaPLTK3KkvpYB-8">
          <mxGeometry relative="1" as="geometry" />
        </mxCell>
        <mxCell id="2l3fewsbaPLTK3KkvpYB-18" value="No" style="edgeLabel;html=1;align=center;verticalAlign=middle;resizable=0;points=[];" vertex="1" connectable="0" parent="2l3fewsbaPLTK3KkvpYB-17">
          <mxGeometry x="-0.371" y="-1" relative="1" as="geometry">
            <mxPoint as="offset" />
          </mxGeometry>
        </mxCell>
        <mxCell id="2l3fewsbaPLTK3KkvpYB-4" value="Timer interrupt?" style="rhombus;whiteSpace=wrap;html=1;" vertex="1" parent="1">
          <mxGeometry x="290" y="300" width="80" height="80" as="geometry" />
        </mxCell>
        <mxCell id="2l3fewsbaPLTK3KkvpYB-12" style="edgeStyle=orthogonalEdgeStyle;rounded=0;orthogonalLoop=1;jettySize=auto;html=1;exitX=0.5;exitY=1;exitDx=0;exitDy=0;entryX=0.5;entryY=0;entryDx=0;entryDy=0;" edge="1" parent="1" source="2l3fewsbaPLTK3KkvpYB-5" target="2l3fewsbaPLTK3KkvpYB-6">
          <mxGeometry relative="1" as="geometry" />
        </mxCell>
        <mxCell id="2l3fewsbaPLTK3KkvpYB-5" value="Wake up and enter EM1" style="rounded=1;whiteSpace=wrap;html=1;" vertex="1" parent="1">
          <mxGeometry x="470" y="260" width="120" height="60" as="geometry" />
        </mxCell>
        <mxCell id="2l3fewsbaPLTK3KkvpYB-13" style="edgeStyle=orthogonalEdgeStyle;rounded=0;orthogonalLoop=1;jettySize=auto;html=1;exitX=0.5;exitY=1;exitDx=0;exitDy=0;entryX=0.5;entryY=0;entryDx=0;entryDy=0;" edge="1" parent="1" source="2l3fewsbaPLTK3KkvpYB-6" target="2l3fewsbaPLTK3KkvpYB-7">
          <mxGeometry relative="1" as="geometry" />
        </mxCell>
        <mxCell id="2l3fewsbaPLTK3KkvpYB-6" value="Read Sensor data(Humidity, temp, pressure light)" style="rounded=1;whiteSpace=wrap;html=1;" vertex="1" parent="1">
          <mxGeometry x="470" y="340" width="120" height="60" as="geometry" />
        </mxCell>
        <mxCell id="2l3fewsbaPLTK3KkvpYB-14" style="edgeStyle=orthogonalEdgeStyle;rounded=0;orthogonalLoop=1;jettySize=auto;html=1;exitX=0.5;exitY=1;exitDx=0;exitDy=0;entryX=0.5;entryY=0;entryDx=0;entryDy=0;" edge="1" parent="1" source="2l3fewsbaPLTK3KkvpYB-7" target="2l3fewsbaPLTK3KkvpYB-8">
          <mxGeometry relative="1" as="geometry" />
        </mxCell>
        <mxCell id="2l3fewsbaPLTK3KkvpYB-7" value="Enter EM0, notify &amp;amp; Send data over BLE Stack" style="rounded=1;whiteSpace=wrap;html=1;" vertex="1" parent="1">
          <mxGeometry x="470" y="420" width="120" height="60" as="geometry" />
        </mxCell>
        <mxCell id="2l3fewsbaPLTK3KkvpYB-15" style="edgeStyle=orthogonalEdgeStyle;rounded=0;orthogonalLoop=1;jettySize=auto;html=1;exitX=0.5;exitY=1;exitDx=0;exitDy=0;entryX=0.5;entryY=1;entryDx=0;entryDy=0;" edge="1" parent="1" source="2l3fewsbaPLTK3KkvpYB-8" target="2l3fewsbaPLTK3KkvpYB-4">
          <mxGeometry relative="1" as="geometry" />
        </mxCell>
        <mxCell id="2l3fewsbaPLTK3KkvpYB-8" value="Enter EM2 and sleep" style="rounded=1;whiteSpace=wrap;html=1;" vertex="1" parent="1">
          <mxGeometry x="470" y="500" width="120" height="60" as="geometry" />
        </mxCell>
        <mxCell id="2l3fewsbaPLTK3KkvpYB-20" value="&lt;font style=&quot;font-size: 14px;&quot;&gt;Low power Node&amp;nbsp;&lt;/font&gt;" style="text;html=1;align=center;verticalAlign=middle;whiteSpace=wrap;rounded=0;" vertex="1" parent="1">
          <mxGeometry x="449" y="-170" width="160" height="20" as="geometry" />
        </mxCell>
        <mxCell id="2l3fewsbaPLTK3KkvpYB-25" style="edgeStyle=orthogonalEdgeStyle;rounded=0;orthogonalLoop=1;jettySize=auto;html=1;exitX=0.5;exitY=1;exitDx=0;exitDy=0;entryX=0.5;entryY=0;entryDx=0;entryDy=0;" edge="1" parent="1" source="2l3fewsbaPLTK3KkvpYB-21">
          <mxGeometry relative="1" as="geometry">
            <mxPoint x="529" y="70" as="targetPoint" />
          </mxGeometry>
        </mxCell>
        <mxCell id="2l3fewsbaPLTK3KkvpYB-21" value="Initialize BLE stack" style="rounded=1;whiteSpace=wrap;html=1;" vertex="1" parent="1">
          <mxGeometry x="469" y="-10" width="120" height="60" as="geometry" />
        </mxCell>
        <mxCell id="2l3fewsbaPLTK3KkvpYB-26" style="edgeStyle=orthogonalEdgeStyle;rounded=0;orthogonalLoop=1;jettySize=auto;html=1;exitX=0.5;exitY=1;exitDx=0;exitDy=0;entryX=0.5;entryY=0;entryDx=0;entryDy=0;" edge="1" parent="1" source="2l3fewsbaPLTK3KkvpYB-24" target="2l3fewsbaPLTK3KkvpYB-3">
          <mxGeometry relative="1" as="geometry" />
        </mxCell>
        <mxCell id="2l3fewsbaPLTK3KkvpYB-29" value="yes" style="edgeLabel;html=1;align=center;verticalAlign=middle;resizable=0;points=[];" vertex="1" connectable="0" parent="2l3fewsbaPLTK3KkvpYB-26">
          <mxGeometry x="-0.32" y="-1" relative="1" as="geometry">
            <mxPoint as="offset" />
          </mxGeometry>
        </mxCell>
        <mxCell id="2l3fewsbaPLTK3KkvpYB-27" style="edgeStyle=orthogonalEdgeStyle;rounded=0;orthogonalLoop=1;jettySize=auto;html=1;exitX=1;exitY=0.5;exitDx=0;exitDy=0;entryX=1;entryY=0.5;entryDx=0;entryDy=0;" edge="1" parent="1" source="2l3fewsbaPLTK3KkvpYB-24" target="2l3fewsbaPLTK3KkvpYB-8">
          <mxGeometry relative="1" as="geometry" />
        </mxCell>
        <mxCell id="2l3fewsbaPLTK3KkvpYB-28" value="No" style="edgeLabel;html=1;align=center;verticalAlign=middle;resizable=0;points=[];" vertex="1" connectable="0" parent="2l3fewsbaPLTK3KkvpYB-27">
          <mxGeometry x="-0.6704" y="2" relative="1" as="geometry">
            <mxPoint x="-1" y="-20" as="offset" />
          </mxGeometry>
        </mxCell>
        <mxCell id="2l3fewsbaPLTK3KkvpYB-24" value="Indication on?" style="rhombus;whiteSpace=wrap;html=1;" vertex="1" parent="1">
          <mxGeometry x="484" y="70" width="90" height="80" as="geometry" />
        </mxCell>
      </root>
    </mxGraphModel>
  </diagram>
</mxfile>
